<svg width="25" height="25" viewBox="0 0 25 25" fill="none" xmlns="http://www.w3.org/2000/svg">
<mask id="mask0_81_7" style="mask-type:alpha" maskUnits="userSpaceOnUse" x="0" y="0" width="25" height="25">
<rect x="0.314941" y="0.657471" width="24" height="24" fill="#D9D9D9"/>
</mask>
<g mask="url(#mask0_81_7)">
<path d="M12.3147 14.0575L7.41475 18.9575C7.23141 19.1409 6.99808 19.2325 6.71475 19.2325C6.43141 19.2325 6.19808 19.1409 6.01475 18.9575C5.83141 18.7742 5.73975 18.5409 5.73975 18.2575C5.73975 17.9742 5.83141 17.7409 6.01475 17.5575L10.9147 12.6575L6.01475 7.75752C5.83141 7.57419 5.73975 7.34085 5.73975 7.05752C5.73975 6.77419 5.83141 6.54085 6.01475 6.35752C6.19808 6.17419 6.43141 6.08252 6.71475 6.08252C6.99808 6.08252 7.23141 6.17419 7.41475 6.35752L12.3147 11.2575L17.2147 6.35752C17.3981 6.17419 17.6314 6.08252 17.9147 6.08252C18.1981 6.08252 18.4314 6.17419 18.6147 6.35752C18.7981 6.54085 18.8897 6.77419 18.8897 7.05752C18.8897 7.34085 18.7981 7.57419 18.6147 7.75752L13.7147 12.6575L18.6147 17.5575C18.7981 17.7409 18.8897 17.9742 18.8897 18.2575C18.8897 18.5409 18.7981 18.7742 18.6147 18.9575C18.4314 19.1409 18.1981 19.2325 17.9147 19.2325C17.6314 19.2325 17.3981 19.1409 17.2147 18.9575L12.3147 14.0575Z" fill="white"/>
</g>
</svg>
