<svg width="19" height="19" viewBox="0 0 19 19" fill="none" xmlns="http://www.w3.org/2000/svg">
<mask id="mask0_3_321" style="mask-type:alpha" maskUnits="userSpaceOnUse" x="0" y="0" width="19" height="19">
<rect width="18.3529" height="18.3529" transform="matrix(-1 0 0 1 18.4229 0.0698242)" fill="#D9D9D9"/>
</mask>
<g mask="url(#mask0_3_321)">
<path d="M9.97221 9.24612L12.9354 5.0976C13.1139 4.8427 13.1362 4.57824 13.0023 4.30422C12.8685 4.0302 12.6423 3.89319 12.3237 3.89319C12.1962 3.89319 12.0751 3.92186 11.9604 3.97922C11.8457 4.03657 11.7565 4.11623 11.6928 4.21819L8.09868 9.24612L11.6928 14.2741C11.7565 14.376 11.8457 14.4557 11.9604 14.513C12.0751 14.5704 12.1962 14.5991 12.3237 14.5991C12.6296 14.5991 12.8526 14.4621 12.9928 14.188C13.133 13.914 13.1139 13.6496 12.9354 13.3946L9.97221 9.24612ZM5.42221 9.24612L8.38544 5.0976C8.56387 4.8427 8.58618 4.57824 8.45235 4.30422C8.31853 4.0302 8.09231 3.89319 7.77368 3.89319C7.64623 3.89319 7.52515 3.92186 7.41044 3.97922C7.29574 4.03657 7.20652 4.11623 7.1428 4.21819L3.54868 9.24612L7.1428 14.2741C7.20652 14.376 7.29574 14.4557 7.41044 14.513C7.52515 14.5704 7.64623 14.5991 7.77368 14.5991C8.07956 14.5991 8.3026 14.4621 8.4428 14.188C8.58299 13.914 8.56387 13.6496 8.38544 13.3946L5.42221 9.24612Z" fill="#5964E0"/>
</g>
</svg>
