<svg width="19" height="19" viewBox="0 0 19 19" fill="none" xmlns="http://www.w3.org/2000/svg">
<mask id="mask0_3_320" style="mask-type:alpha" maskUnits="userSpaceOnUse" x="0" y="0" width="19" height="19">
<rect x="0.463867" y="0.0698242" width="18.3529" height="18.3529" fill="#D9D9D9"/>
</mask>
<g mask="url(#mask0_3_320)">
<path d="M8.91451 9.24612L5.95128 5.0976C5.77285 4.8427 5.75055 4.57824 5.88437 4.30422C6.01819 4.0302 6.24442 3.89319 6.56304 3.89319C6.6905 3.89319 6.81157 3.92186 6.92628 3.97922C7.04099 4.03657 7.1302 4.11623 7.19393 4.21819L10.788 9.24612L7.19393 14.2741C7.1302 14.376 7.04099 14.4557 6.92628 14.513C6.81157 14.5704 6.6905 14.5991 6.56304 14.5991C6.25716 14.5991 6.03412 14.4621 5.89393 14.188C5.75373 13.914 5.77285 13.6496 5.95128 13.3946L8.91451 9.24612ZM13.4645 9.24612L10.5013 5.0976C10.3228 4.8427 10.3005 4.57824 10.4344 4.30422C10.5682 4.0302 10.7944 3.89319 11.113 3.89319C11.2405 3.89319 11.3616 3.92186 11.4763 3.97922C11.591 4.03657 11.6802 4.11623 11.7439 4.21819L15.338 9.24612L11.7439 14.2741C11.6802 14.376 11.591 14.4557 11.4763 14.513C11.3616 14.5704 11.2405 14.5991 11.113 14.5991C10.8072 14.5991 10.5841 14.4621 10.4439 14.188C10.3037 13.914 10.3228 13.6496 10.5013 13.3946L13.4645 9.24612Z" fill="#5964E0"/>
</g>
</svg>
