<svg width="104" height="34" viewBox="0 0 104 34" fill="none" xmlns="http://www.w3.org/2000/svg">
<path d="M14.12 33L7.32 23.64V33H0.48V3.4H7.32V19.76L14.08 10.68H22.52L13.24 21.88L22.6 33H14.12ZM28.6466 8.36C27.4466 8.36 26.4599 8.01333 25.6866 7.32C24.9399 6.6 24.5666 5.72 24.5666 4.68C24.5666 3.61333 24.9399 2.73333 25.6866 2.04C26.4599 1.32 27.4466 0.959998 28.6466 0.959998C29.8199 0.959998 30.7799 1.32 31.5266 2.04C32.2999 2.73333 32.6866 3.61333 32.6866 4.68C32.6866 5.72 32.2999 6.6 31.5266 7.32C30.7799 8.01333 29.8199 8.36 28.6466 8.36ZM32.0466 10.68V33H25.2066V10.68H32.0466ZM49.4434 27.2V33H45.9634C43.4834 33 41.5501 32.4 40.1634 31.2C38.7768 29.9733 38.0834 27.9867 38.0834 25.24V16.36H35.3634V10.68H38.0834V5.24H44.9234V10.68H49.4034V16.36H44.9234V25.32C44.9234 25.9867 45.0834 26.4667 45.4034 26.76C45.7234 27.0533 46.2568 27.2 47.0034 27.2H49.4434ZM51.8934 21.8C51.8934 19.5067 52.3201 17.4933 53.1734 15.76C54.0534 14.0267 55.2401 12.6933 56.7334 11.76C58.2268 10.8267 59.8934 10.36 61.7334 10.36C63.3068 10.36 64.6801 10.68 65.8534 11.32C67.0534 11.96 67.9734 12.8 68.6134 13.84V10.68H75.4534V33H68.6134V29.84C67.9468 30.88 67.0134 31.72 65.8134 32.36C64.6401 33 63.2668 33.32 61.6934 33.32C59.8801 33.32 58.2268 32.8533 56.7334 31.92C55.2401 30.96 54.0534 29.6133 53.1734 27.88C52.3201 26.12 51.8934 24.0933 51.8934 21.8ZM68.6134 21.84C68.6134 20.1333 68.1334 18.7867 67.1734 17.8C66.2401 16.8133 65.0934 16.32 63.7334 16.32C62.3734 16.32 61.2134 16.8133 60.2534 17.8C59.3201 18.76 58.8534 20.0933 58.8534 21.8C58.8534 23.5067 59.3201 24.8667 60.2534 25.88C61.2134 26.8667 62.3734 27.36 63.7334 27.36C65.0934 27.36 66.2401 26.8667 67.1734 25.88C68.1334 24.8933 68.6134 23.5467 68.6134 21.84ZM87.2419 13.84C87.8819 12.8 88.8019 11.96 90.0019 11.32C91.2019 10.68 92.5752 10.36 94.1219 10.36C95.9619 10.36 97.6285 10.8267 99.1219 11.76C100.615 12.6933 101.789 14.0267 102.642 15.76C103.522 17.4933 103.962 19.5067 103.962 21.8C103.962 24.0933 103.522 26.12 102.642 27.88C101.789 29.6133 100.615 30.96 99.1219 31.92C97.6285 32.8533 95.9619 33.32 94.1219 33.32C92.5485 33.32 91.1752 33.0133 90.0019 32.4C88.8285 31.76 87.9085 30.92 87.2419 29.88V33H80.4019V3.4H87.2419V13.84ZM97.0019 21.8C97.0019 20.0933 96.5219 18.76 95.5619 17.8C94.6285 16.8133 93.4685 16.32 92.0819 16.32C90.7219 16.32 89.5619 16.8133 88.6019 17.8C87.6685 18.7867 87.2019 20.1333 87.2019 21.84C87.2019 23.5467 87.6685 24.8933 88.6019 25.88C89.5619 26.8667 90.7219 27.36 92.0819 27.36C93.4419 27.36 94.6019 26.8667 95.5619 25.88C96.5219 24.8667 97.0019 23.5067 97.0019 21.8Z" fill="white"/>
</svg>
