<svg width="1440" height="160" viewBox="0 0 1440 160" fill="none" xmlns="http://www.w3.org/2000/svg">
<path d="M0 0H1440V160H100C44.7715 160 0 115.228 0 60V0Z" fill="url(#paint0_linear_59_37)"/>
<path d="M0 0H1440V160H100C44.7715 160 0 115.228 0 60V0Z" fill="#5964E0"/>
<mask id="mask0_59_37" style="mask-type:alpha" maskUnits="userSpaceOnUse" x="0" y="0" width="1440" height="160">
<path d="M0 0H1440V160H100C44.7715 160 0 115.228 0 60V0Z" fill="url(#paint1_linear_59_37)"/>
<path d="M0 0H1440V160H100C44.7715 160 0 115.228 0 60V0Z" fill="#5964E0"/>
</mask>
<g mask="url(#mask0_59_37)">
<path d="M896.629 157.046C864.957 149.977 852.925 111.192 875.035 87.4385L1104.54 -159.133C1126.53 -182.756 1165.84 -173.785 1175.4 -142.962L1274.66 176.989C1284.22 207.812 1256.89 237.455 1225.4 230.425L896.629 157.046Z" fill="white" fill-opacity="0.12"/>
<path d="M463.037 93.237C433.751 107.214 400.353 84.1139 403.098 51.7794L431.595 -283.869C434.325 -316.026 470.794 -333.217 497.336 -314.859L772.848 -124.298C799.39 -105.94 796.172 -65.7507 767.047 -51.8507L463.037 93.237Z" fill="white" fill-opacity="0.12"/>
<path d="M205.5 166L0.930663 17C-1.56934 37.6667 -18.1 136.4 19.5 160C57.1 183.6 178 169.667 205.5 166Z" fill="white" fill-opacity="0.12"/>
</g>
<defs>
<linearGradient id="paint0_linear_59_37" x1="0" y1="0" x2="1440" y2="160" gradientUnits="userSpaceOnUse">
<stop stop-color="#5964E0"/>
<stop offset="1" stop-color="#4755F1"/>
</linearGradient>
<linearGradient id="paint1_linear_59_37" x1="0" y1="0" x2="1440" y2="160" gradientUnits="userSpaceOnUse">
<stop stop-color="#5964E0"/>
<stop offset="1" stop-color="#4755F1"/>
</linearGradient>
</defs>
</svg>
